# xmcd
#
# Track frame offsets:
#	150
#	23074
#	33537
#	50488
#	67818
#	78486
#	93259
#	110299
#	130920
#	144588
#	162944
#	177015
#	193205
#	209959
#	225573
#	240904
#	258326
#	269435
#	288040
#	296685
#
# Disc length: 4137 seconds
#
# Revision: 1
# Processed by: cddbd v1.5.2PL0 Copyright (c) Steve Scherf et al.
# Submitted via: audiograbber 1.83.01
#
DISCID=1d102714
DTITLE=TSP Country - TSP Country 021
DYEAR=2006
DGENRE=Country
TTITLE0=Mama  - Miko Marks
TTITLE1=Housebroken  - Bird and Tines
TTITLE2=He´s Not You  - Laurelyn Carter
TTITLE3=You´ll Never Know What Lonesome Is  - Derek Mccorkell
TTITLE4=If The Fall Don´t Kill Me  - Martin Farmer
TTITLE5=God Gave Him A Fastball  - Tom Rooney
TTITLE6=Places In Our Mind  - Jenny Casey
TTITLE7=Dancin With The Angels  - Ronnie Tango
TTITLE8=Good Day  - Ronnie Tango
TTITLE9=Don´t Shove Me Aside  - Jim Cook and The Taylormacs
TTITLE10=Don´t Come Cryin To Me  - Miko Marks
TTITLE11=The Real Things  - Scott Dawson
TTITLE12=Love Doing It´s Thing  - Country Blend
TTITLE13=Can´t Hiold Back The Wind  - Derek Mccorkell
TTITLE14=Red White And True Country  - Martin Farmer
TTITLE15=The Vet - Jim Cook and The Taylormacs
TTITLE16=The Games People Play  - James C Allen
TTITLE17=My Lover, My Friend, My Wife  - Scott Dawson
TTITLE18=Alabama Whiskey - James C Allen
TTITLE19=I´ll Be There  - Mike Lusk
EXTD=
EXTT0=
EXTT1=
EXTT2=
EXTT3=
EXTT4=
EXTT5=
EXTT6=
EXTT7=
EXTT8=
EXTT9=
EXTT10=
EXTT11=
EXTT12=
EXTT13=
EXTT14=
EXTT15=
EXTT16=
EXTT17=
EXTT18=
EXTT19=
PLAYORDER=
